<svg width="164" height="151" viewBox="0 0 164 151" fill="none" xmlns="http://www.w3.org/2000/svg">
<path d="M112.45 80.8554C120.529 75.0351 126.426 67.0538 129.32 58.0218C132.215 48.9898 131.963 39.3563 128.6 30.4615C125.236 21.5667 118.929 13.853 110.555 8.39341C102.181 2.93386 92.1574 0 81.8778 0C71.5982 0 61.5742 2.93386 53.2003 8.39341C44.8264 13.853 38.5192 21.5667 35.1559 30.4615C31.7927 39.3563 31.5408 48.9898 34.4353 58.0218C37.3298 67.0538 43.2266 75.0351 51.3056 80.8554C37.4622 85.9339 25.3833 94.3572 16.3568 105.227C7.33016 116.097 1.6942 129.006 0.0497053 142.579C-0.0693319 143.57 0.0259442 144.572 0.330092 145.53C0.634239 146.487 1.1413 147.38 1.82233 148.157C3.19773 149.728 5.19823 150.734 7.38374 150.954C9.56926 151.175 11.7608 150.591 13.4761 149.331C15.1915 148.072 16.2903 146.24 16.5307 144.239C18.3402 129.489 26.0212 115.866 38.1061 105.973C50.191 96.0808 65.8327 90.6121 82.0426 90.6121C98.2525 90.6121 113.894 96.0808 125.979 105.973C138.064 115.866 145.745 129.489 147.554 144.239C147.779 146.093 148.745 147.805 150.266 149.046C151.788 150.286 153.758 150.966 155.795 150.954H156.701C158.862 150.727 160.836 149.727 162.194 148.172C163.553 146.617 164.185 144.634 163.953 142.654C162.301 129.043 156.634 116.101 147.561 105.214C138.489 94.3276 126.351 85.907 112.45 80.8554ZM81.8778 75.498C75.3585 75.498 68.9857 73.7278 63.5651 70.4113C58.1445 67.0948 53.9197 62.3809 51.4249 56.8658C48.9301 51.3506 48.2773 45.2819 49.5492 39.427C50.821 33.5722 53.9603 28.1942 58.5701 23.973C63.18 19.7519 69.0532 16.8773 75.4472 15.7127C81.8412 14.5481 88.4688 15.1458 94.4918 17.4303C100.515 19.7147 105.663 23.5833 109.285 28.5468C112.907 33.5103 114.84 39.3458 114.84 45.3154C114.84 53.3203 111.367 60.9974 105.185 66.6577C99.0039 72.318 90.6198 75.498 81.8778 75.498Z" fill="white"/>
</svg>
