<svg width="151" height="135" viewBox="0 0 151 135" fill="none" xmlns="http://www.w3.org/2000/svg">
<path d="M103.536 72.2879C110.975 67.0844 116.404 59.9488 119.069 51.8738C121.734 43.7988 121.502 35.1861 118.406 27.2338C115.309 19.2815 109.502 12.3851 101.792 7.50405C94.0817 2.62299 84.8522 0 75.3875 0C65.9227 0 56.6933 2.62299 48.9832 7.50405C41.2731 12.3851 35.4658 19.2815 32.3692 27.2338C29.2726 35.1861 29.0407 43.7988 31.7057 51.8738C34.3707 59.9488 39.8001 67.0844 47.2387 72.2879C34.4926 76.8283 23.3712 84.3591 15.0602 94.0773C6.74911 103.796 1.55991 115.337 0.0457653 127.471C-0.0638361 128.357 0.0238876 129.253 0.303926 130.109C0.583964 130.965 1.05083 131.763 1.67788 132.459C2.94425 133.863 4.78617 134.762 6.79845 134.959C8.81072 135.156 10.8285 134.634 12.4079 133.508C13.9873 132.382 14.999 130.744 15.2203 128.955C16.8864 115.768 23.9585 103.589 35.0855 94.7443C46.2125 85.9 60.6143 81.0108 75.5392 81.0108C90.4642 81.0108 104.866 85.9 115.993 94.7443C127.12 103.589 134.192 115.768 135.858 128.955C136.064 130.613 136.954 132.144 138.355 133.253C139.756 134.361 141.57 134.969 143.445 134.959H144.28C146.269 134.756 148.087 133.862 149.337 132.472C150.588 131.082 151.17 129.309 150.957 127.539C149.435 115.37 144.218 103.799 135.865 94.0658C127.511 84.3326 116.335 76.8043 103.536 72.2879ZM75.3875 67.4982C69.385 67.4982 63.5173 65.9156 58.5264 62.9505C53.5355 59.9854 49.6456 55.771 47.3485 50.8402C45.0515 45.9095 44.4505 40.4838 45.6215 35.2493C46.7925 30.0149 49.683 25.2067 53.9274 21.4329C58.1718 17.659 63.5795 15.089 69.4667 14.0478C75.3538 13.0066 81.456 13.541 87.0016 15.5834C92.5472 17.6258 97.287 21.0844 100.622 25.522C103.957 29.9596 105.737 35.1767 105.737 40.5137C105.737 47.6705 102.539 54.5341 96.8475 59.5946C91.156 64.6552 83.4366 67.4982 75.3875 67.4982Z" fill="#0095FF"/>
</svg>