<svg width="294" height="289" viewBox="0 0 294 289" fill="none" xmlns="http://www.w3.org/2000/svg">
<path d="M109.091 8V45.2273M184.909 8V45.2273M109.091 243.773V281M184.909 243.773V281M248.091 107.273H286M248.091 169.318H286M8 107.273H45.9091M8 169.318H45.9091M71.1818 45.2273H222.818C236.776 45.2273 248.091 56.3388 248.091 70.0455V218.955C248.091 232.661 236.776 243.773 222.818 243.773H71.1818C57.2241 243.773 45.9091 232.661 45.9091 218.955V70.0455C45.9091 56.3388 57.2241 45.2273 71.1818 45.2273ZM109.091 107.273H184.909V181.727H109.091V107.273Z" stroke="#0095FF" stroke-width="15" stroke-linecap="round" stroke-linejoin="round"/>
</svg>
