<svg width="225" height="227" viewBox="0 0 225 227" fill="none" xmlns="http://www.w3.org/2000/svg">
<path d="M83.2092 3V33.1364M142.651 3V33.1364M83.2092 193.864V224M142.651 193.864V224M192.186 83.3636H221.907M192.186 133.591H221.907M3.95312 83.3636H33.6742M3.95312 133.591H33.6742M53.4882 33.1364H172.372C183.315 33.1364 192.186 42.1314 192.186 53.2273V173.773C192.186 184.869 183.315 193.864 172.372 193.864H53.4882C42.5452 193.864 33.6742 184.869 33.6742 173.773V53.2273C33.6742 42.1314 42.5452 33.1364 53.4882 33.1364ZM83.2092 83.3636H142.651V143.636H83.2092V83.3636Z" stroke="white" stroke-width="6" stroke-linecap="round" stroke-linejoin="round"/>
</svg>
