<svg width="54" height="51" viewBox="0 0 54 51" fill="none" xmlns="http://www.w3.org/2000/svg">
<path d="M20.2017 2.86389V9.09951M33.7907 2.86389V9.09951M20.2017 42.3561V48.5917M33.7907 42.3561V48.5917M45.1149 19.4922H51.9094M45.1149 29.8849H51.9094M2.08301 19.4922H8.87752M2.08301 29.8849H8.87752M13.4072 9.09951H40.5852C43.0869 9.09951 45.1149 10.9607 45.1149 13.2566V38.199C45.1149 40.4949 43.0869 42.3561 40.5852 42.3561H13.4072C10.9055 42.3561 8.87752 40.4949 8.87752 38.199V13.2566C8.87752 10.9607 10.9055 9.09951 13.4072 9.09951ZM20.2017 19.4922H33.7907V31.9634H20.2017V19.4922Z" stroke="#55A603" stroke-width="4" stroke-linecap="round" stroke-linejoin="round"/>
</svg>
